# Blender v2.74 (sub 0) OBJ File: ''
# www.blender.org
mtllib egg.mtl
o Sphere
v 0.000000 1.197150 -0.000000
v 0.104000 1.181935 -0.000000
v 0.203400 1.136847 -0.000000
v 0.293900 1.063842 -0.000000
v 0.371600 0.966268 -0.000000
v 0.433000 0.848175 -0.000000
v 0.475500 0.714867 -0.000000
v 0.497300 0.572206 -0.000000
v 0.497300 0.426194 0.000000
v 0.475500 0.283533 0.000000
v 0.433000 0.150225 0.000000
v 0.371600 0.032132 0.000000
v 0.293900 -0.065442 0.000000
v 0.203400 -0.138447 0.000000
v 0.104000 -0.183535 0.000000
v 0.000000 -0.198750 0.000000
v 0.095000 1.181935 0.042300
v 0.185800 1.136847 0.082700
v 0.268500 1.063842 0.119500
v 0.339400 0.966268 0.151100
v 0.395600 0.848175 0.176100
v 0.434400 0.714867 0.193400
v 0.454300 0.572206 0.202300
v 0.454300 0.426194 0.202300
v 0.434400 0.283533 0.193400
v 0.395600 0.150225 0.176100
v 0.339400 0.032132 0.151100
v 0.268500 -0.065442 0.119500
v 0.185800 -0.138447 0.082700
v 0.095000 -0.183535 0.042300
v 0.069600 1.181935 0.077300
v 0.136100 1.136847 0.151100
v 0.196700 1.063842 0.218400
v 0.248600 0.966268 0.276100
v 0.289700 0.848175 0.321800
v 0.318200 0.714867 0.353400
v 0.332700 0.572206 0.369500
v 0.332700 0.426194 0.369500
v 0.318200 0.283533 0.353400
v 0.289700 0.150225 0.321800
v 0.248600 0.032132 0.276100
v 0.196700 -0.065442 0.218400
v 0.136100 -0.138447 0.151100
v 0.069600 -0.183535 0.077300
v 0.032100 1.181935 0.098900
v 0.062800 1.136847 0.193400
v 0.090800 1.063842 0.279500
v 0.114800 0.966268 0.353400
v 0.133800 0.848175 0.411800
v 0.146900 0.714867 0.452300
v 0.153700 0.572206 0.472900
v 0.153700 0.426194 0.472900
v 0.146900 0.283533 0.452300
v 0.133800 0.150225 0.411800
v 0.114800 0.032132 0.353400
v 0.090800 -0.065442 0.279500
v 0.062800 -0.138447 0.193400
v 0.032100 -0.183535 0.098900
v -0.010900 1.181935 0.103400
v -0.021300 1.136847 0.202300
v -0.030700 1.063842 0.292300
v -0.038800 0.966268 0.369500
v -0.045300 0.848175 0.430600
v -0.049700 0.714867 0.472900
v -0.052000 0.572206 0.494500
v -0.052000 0.426194 0.494500
v -0.049700 0.283533 0.472900
v -0.045300 0.150225 0.430600
v -0.038800 0.032132 0.369500
v -0.030700 -0.065442 0.292300
v -0.021300 -0.138447 0.202300
v -0.010900 -0.183535 0.103400
v -0.052000 1.181935 0.090000
v -0.101700 1.136847 0.176100
v -0.146900 1.063842 0.254500
v -0.185800 0.966268 0.321800
v -0.216500 0.848175 0.375000
v -0.237800 0.714867 0.411800
v -0.248600 0.572206 0.430600
v -0.248600 0.426194 0.430600
v -0.237800 0.283533 0.411800
v -0.216500 0.150225 0.375000
v -0.185800 0.032132 0.321800
v -0.146900 -0.065442 0.254500
v -0.101700 -0.138447 0.176100
v -0.052000 -0.183535 0.090000
v -0.084100 1.181935 0.061100
v -0.164500 1.136847 0.119500
v -0.237800 1.063842 0.172700
v -0.300600 0.966268 0.218400
v -0.350300 0.848175 0.254500
v -0.384700 0.714867 0.279500
v -0.402300 0.572206 0.292300
v -0.402300 0.426194 0.292300
v -0.384700 0.283533 0.279500
v -0.350300 0.150225 0.254500
v -0.300600 0.032132 0.218400
v -0.237800 -0.065442 0.172700
v -0.164500 -0.138447 0.119500
v -0.084100 -0.183535 0.061100
v -0.101700 1.181935 0.021600
v -0.198900 1.136847 0.042300
v -0.287500 1.063842 0.061100
v -0.363500 0.966268 0.077300
v -0.423600 0.848175 0.090000
v -0.465100 0.714867 0.098900
v -0.486400 0.572206 0.103400
v -0.486400 0.426194 0.103400
v -0.465100 0.283533 0.098900
v -0.423600 0.150225 0.090000
v -0.363500 0.032132 0.077300
v -0.287500 -0.065442 0.061100
v -0.198900 -0.138447 0.042300
v -0.101700 -0.183535 0.021600
v -0.101700 1.181935 -0.021600
v -0.198900 1.136847 -0.042300
v -0.287500 1.063842 -0.061100
v -0.363500 0.966268 -0.077300
v -0.423600 0.848175 -0.090000
v -0.465100 0.714867 -0.098900
v -0.486400 0.572206 -0.103400
v -0.486400 0.426194 -0.103400
v -0.465100 0.283533 -0.098900
v -0.423600 0.150225 -0.090000
v -0.363500 0.032132 -0.077300
v -0.287500 -0.065442 -0.061100
v -0.198900 -0.138447 -0.042300
v -0.101700 -0.183535 -0.021600
v -0.084100 1.181935 -0.061100
v -0.164500 1.136847 -0.119500
v -0.237800 1.063842 -0.172700
v -0.300600 0.966268 -0.218400
v -0.350300 0.848175 -0.254500
v -0.384700 0.714867 -0.279500
v -0.402300 0.572206 -0.292300
v -0.402300 0.426194 -0.292300
v -0.384700 0.283533 -0.279500
v -0.350300 0.150225 -0.254500
v -0.300600 0.032132 -0.218400
v -0.237800 -0.065442 -0.172700
v -0.164500 -0.138447 -0.119500
v -0.084100 -0.183535 -0.061100
v -0.052000 1.181935 -0.090000
v -0.101700 1.136847 -0.176100
v -0.146900 1.063842 -0.254500
v -0.185800 0.966268 -0.321800
v -0.216500 0.848175 -0.375000
v -0.237800 0.714867 -0.411800
v -0.248600 0.572206 -0.430600
v -0.248600 0.426194 -0.430600
v -0.237800 0.283533 -0.411800
v -0.216500 0.150225 -0.375000
v -0.185800 0.032132 -0.321800
v -0.146900 -0.065442 -0.254500
v -0.101700 -0.138447 -0.176100
v -0.052000 -0.183535 -0.090000
v -0.010900 1.181935 -0.103400
v -0.021300 1.136847 -0.202300
v -0.030700 1.063842 -0.292300
v -0.038800 0.966268 -0.369500
v -0.045300 0.848175 -0.430600
v -0.049700 0.714867 -0.472900
v -0.052000 0.572206 -0.494500
v -0.052000 0.426194 -0.494500
v -0.049700 0.283533 -0.472900
v -0.045300 0.150225 -0.430600
v -0.038800 0.032132 -0.369500
v -0.030700 -0.065442 -0.292300
v -0.021300 -0.138447 -0.202300
v -0.010900 -0.183535 -0.103400
v 0.032100 1.181935 -0.098900
v 0.062800 1.136847 -0.193400
v 0.090800 1.063842 -0.279500
v 0.114800 0.966268 -0.353400
v 0.133800 0.848175 -0.411800
v 0.146900 0.714867 -0.452300
v 0.153700 0.572206 -0.472900
v 0.153700 0.426194 -0.472900
v 0.146900 0.283533 -0.452300
v 0.133800 0.150225 -0.411800
v 0.114800 0.032132 -0.353400
v 0.090800 -0.065442 -0.279500
v 0.062800 -0.138447 -0.193400
v 0.032100 -0.183535 -0.098900
v 0.069600 1.181935 -0.077300
v 0.136100 1.136847 -0.151100
v 0.196700 1.063842 -0.218400
v 0.248600 0.966268 -0.276100
v 0.289700 0.848175 -0.321800
v 0.318200 0.714867 -0.353400
v 0.332700 0.572206 -0.369500
v 0.332700 0.426194 -0.369500
v 0.318200 0.283533 -0.353400
v 0.289700 0.150225 -0.321800
v 0.248600 0.032132 -0.276100
v 0.196700 -0.065442 -0.218400
v 0.136100 -0.138447 -0.151100
v 0.069600 -0.183535 -0.077300
v 0.095000 1.181935 -0.042300
v 0.185800 1.136847 -0.082700
v 0.268500 1.063842 -0.119500
v 0.339400 0.966268 -0.151100
v 0.395600 0.848175 -0.176100
v 0.434400 0.714867 -0.193400
v 0.454300 0.572206 -0.202300
v 0.454300 0.426194 -0.202300
v 0.434400 0.283533 -0.193400
v 0.395600 0.150225 -0.176100
v 0.339400 0.032132 -0.151100
v 0.268500 -0.065442 -0.119500
v 0.185800 -0.138447 -0.082700
v 0.095000 -0.183535 -0.042300
vt 0.500000 0.500000
vt 0.595000 0.457700
vt 0.604000 0.500000
vt 0.685800 0.417300
vt 0.703400 0.500000
vt 0.768500 0.380500
vt 0.793900 0.500000
vt 0.839400 0.348900
vt 0.871600 0.500000
vt 0.895600 0.323900
vt 0.933000 0.500000
vt 0.934400 0.306600
vt 0.975500 0.500000
vt 0.954300 0.297700
vt 0.997300 0.500000
vt 0.569600 0.422700
vt 0.636100 0.348900
vt 0.696700 0.281600
vt 0.748600 0.223900
vt 0.789700 0.178200
vt 0.818200 0.146600
vt 0.832700 0.130500
vt 0.532100 0.401100
vt 0.562800 0.306600
vt 0.590800 0.220500
vt 0.614800 0.146600
vt 0.633800 0.088200
vt 0.646900 0.047700
vt 0.653700 0.027100
vt 0.489100 0.396600
vt 0.478700 0.297700
vt 0.469300 0.207700
vt 0.461200 0.130500
vt 0.454700 0.069400
vt 0.450300 0.027100
vt 0.448000 0.005500
vt 0.448000 0.410000
vt 0.398300 0.323900
vt 0.353100 0.245500
vt 0.314200 0.178200
vt 0.283500 0.125000
vt 0.262200 0.088200
vt 0.251400 0.069400
vt 0.415900 0.438900
vt 0.335500 0.380500
vt 0.262200 0.327300
vt 0.199400 0.281600
vt 0.149700 0.245500
vt 0.115300 0.220500
vt 0.097700 0.207700
vt 0.398300 0.478400
vt 0.301100 0.457700
vt 0.212500 0.438900
vt 0.136500 0.422700
vt 0.076400 0.410000
vt 0.034900 0.401100
vt 0.013600 0.396600
vt 0.398300 0.521600
vt 0.301100 0.542300
vt 0.212500 0.561100
vt 0.136500 0.577300
vt 0.076400 0.590000
vt 0.034900 0.598900
vt 0.013600 0.603400
vt 0.415900 0.561100
vt 0.335500 0.619500
vt 0.262200 0.672700
vt 0.199400 0.718400
vt 0.149700 0.754500
vt 0.115300 0.779500
vt 0.097700 0.792300
vt 0.448000 0.590000
vt 0.398300 0.676100
vt 0.353100 0.754500
vt 0.314200 0.821800
vt 0.283500 0.875000
vt 0.262200 0.911800
vt 0.251400 0.930600
vt 0.489100 0.603400
vt 0.478700 0.702300
vt 0.469300 0.792300
vt 0.461200 0.869500
vt 0.454700 0.930600
vt 0.450300 0.972900
vt 0.448000 0.994500
vt 0.532100 0.598900
vt 0.562800 0.693400
vt 0.590800 0.779500
vt 0.614800 0.853400
vt 0.633800 0.911800
vt 0.646900 0.952300
vt 0.653700 0.972900
vt 0.569600 0.577300
vt 0.636100 0.651100
vt 0.696700 0.718400
vt 0.748600 0.776100
vt 0.789700 0.821800
vt 0.818200 0.853400
vt 0.832700 0.869500
vt 0.595000 0.542300
vt 0.685800 0.582700
vt 0.768500 0.619500
vt 0.839400 0.651100
vt 0.895600 0.676100
vt 0.934400 0.693400
vt 0.954300 0.702300
vn -0.000000 1.000000 0.000000
vn 0.260800 0.958400 0.116000
vn 0.285400 0.958400 -0.000000
vn 0.480200 0.850700 0.213600
vn 0.525600 0.850700 -0.000000
vn 0.647400 0.705700 0.288000
vn 0.708500 0.705700 -0.000000
vn 0.764900 0.546900 0.340400
vn 0.837200 0.546900 -0.000000
vn 0.842600 0.386600 0.375000
vn 0.922300 0.386600 -0.000000
vn 0.889100 0.229900 0.395800
vn 0.973200 0.229900 -0.000000
vn 0.910800 0.076200 0.405700
vn 0.997100 0.076500 -0.000000
vn 0.910800 -0.076200 0.405700
vn 0.997100 -0.076400 -0.000000
vn 0.889100 -0.229900 0.395800
vn 0.973200 -0.229900 -0.000000
vn 0.842600 -0.386600 0.375000
vn 0.922300 -0.386600 -0.000000
vn 0.764900 -0.546900 0.340400
vn 0.837200 -0.546900 -0.000000
vn 0.647400 -0.705700 0.288000
vn 0.708500 -0.705700 -0.000000
vn 0.480200 -0.850700 0.213600
vn 0.525600 -0.850700 -0.000000
vn 0.260800 -0.958400 0.116000
vn 0.285400 -0.958400 -0.000000
vn -0.000000 -1.000000 0.000000
vn 0.191000 0.958400 0.212100
vn 0.351800 0.850800 0.390500
vn 0.474300 0.705800 0.526300
vn 0.560400 0.546800 0.622000
vn 0.617200 0.386700 0.685200
vn 0.651300 0.229900 0.723200
vn 0.667100 0.076100 0.741000
vn 0.667100 -0.076100 0.741000
vn 0.651300 -0.229900 0.723200
vn 0.617200 -0.386700 0.685200
vn 0.560500 -0.546800 0.622000
vn 0.474300 -0.705800 0.526300
vn 0.351800 -0.850800 0.390500
vn 0.191000 -0.958400 0.212100
vn 0.088200 0.958400 0.271500
vn 0.162600 0.850700 0.499800
vn 0.219200 0.705800 0.673700
vn 0.258900 0.546800 0.796200
vn 0.285000 0.386700 0.877000
vn 0.300800 0.229800 0.925600
vn 0.308100 0.076000 0.948300
vn 0.308100 -0.076000 0.948300
vn 0.300800 -0.229800 0.925600
vn 0.285000 -0.386700 0.877000
vn 0.258900 -0.546800 0.796200
vn 0.219200 -0.705800 0.673700
vn 0.162600 -0.850700 0.499800
vn 0.088200 -0.958400 0.271500
vn -0.029900 0.958400 0.283700
vn -0.054800 0.850800 0.522700
vn -0.073800 0.705700 0.704600
vn -0.087300 0.546800 0.832700
vn -0.096200 0.386600 0.917200
vn -0.101800 0.229800 0.967900
vn -0.104300 0.076100 0.991600
vn -0.104300 -0.076100 0.991600
vn -0.101800 -0.229800 0.967900
vn -0.096200 -0.386600 0.917200
vn -0.087300 -0.546800 0.832700
vn -0.073800 -0.705700 0.704600
vn -0.054800 -0.850800 0.522700
vn -0.029900 -0.958400 0.283700
vn -0.142800 0.958400 0.247100
vn -0.262800 0.850700 0.455100
vn -0.354100 0.705800 0.613600
vn -0.418300 0.546900 0.725200
vn -0.461000 0.386600 0.798800
vn -0.486500 0.229800 0.842900
vn -0.498500 0.076100 0.863600
vn -0.498500 -0.076100 0.863600
vn -0.486500 -0.229800 0.842900
vn -0.461000 -0.386600 0.798800
vn -0.418300 -0.546900 0.725200
vn -0.354100 -0.705800 0.613600
vn -0.262800 -0.850700 0.455100
vn -0.142800 -0.958400 0.247100
vn -0.230900 0.958400 0.167800
vn -0.425100 0.850800 0.309100
vn -0.572900 0.705900 0.416600
vn -0.677100 0.546900 0.492400
vn -0.746000 0.386500 0.542300
vn -0.787300 0.229900 0.572100
vn -0.806600 0.076300 0.586200
vn -0.806600 -0.076300 0.586200
vn -0.787300 -0.229800 0.572100
vn -0.746000 -0.386500 0.542300
vn -0.677100 -0.546900 0.492400
vn -0.572900 -0.705900 0.416600
vn -0.425100 -0.850800 0.309100
vn -0.230900 -0.958400 0.167800
vn -0.279200 0.958400 0.059400
vn -0.513900 0.850800 0.109500
vn -0.692700 0.705900 0.147600
vn -0.818800 0.546900 0.174400
vn -0.902100 0.386400 0.192100
vn -0.952000 0.229800 0.202400
vn -0.975300 0.076300 0.207300
vn -0.975300 -0.076400 0.207300
vn -0.952000 -0.229800 0.202400
vn -0.902100 -0.386400 0.192100
vn -0.818800 -0.546900 0.174400
vn -0.692700 -0.705900 0.147600
vn -0.513900 -0.850800 0.109500
vn -0.279200 -0.958400 0.059400
vn -0.279200 0.958400 -0.059300
vn -0.514000 0.850800 -0.109100
vn -0.692800 0.705900 -0.147100
vn -0.818900 0.546900 -0.174000
vn -0.902200 0.386400 -0.191700
vn -0.952000 0.229800 -0.202300
vn -0.975300 0.076300 -0.207300
vn -0.975300 -0.076300 -0.207300
vn -0.952000 -0.229800 -0.202300
vn -0.902200 -0.386400 -0.191700
vn -0.818900 -0.546900 -0.174000
vn -0.692800 -0.705900 -0.147100
vn -0.514000 -0.850800 -0.109100
vn -0.279200 -0.958400 -0.059300
vn -0.231000 0.958400 -0.167700
vn -0.425300 0.850800 -0.308800
vn -0.573200 0.705900 -0.416200
vn -0.677400 0.546900 -0.492000
vn -0.746200 0.386500 -0.542000
vn -0.787400 0.229800 -0.572000
vn -0.806600 0.076300 -0.586100
vn -0.806600 -0.076300 -0.586100
vn -0.787400 -0.229800 -0.572000
vn -0.746200 -0.386500 -0.542000
vn -0.677400 -0.546900 -0.492000
vn -0.573200 -0.705900 -0.416200
vn -0.425300 -0.850800 -0.308800
vn -0.231000 -0.958400 -0.167700
vn -0.142900 0.958400 -0.247000
vn -0.263100 0.850700 -0.455000
vn -0.354500 0.705800 -0.613400
vn -0.418800 0.546900 -0.724900
vn -0.461300 0.386600 -0.798600
vn -0.486600 0.229800 -0.842800
vn -0.498500 0.076100 -0.863500
vn -0.498500 -0.076100 -0.863500
vn -0.486600 -0.229800 -0.842800
vn -0.461300 -0.386600 -0.798600
vn -0.418800 -0.546900 -0.724900
vn -0.354500 -0.705800 -0.613400
vn -0.263100 -0.850700 -0.455000
vn -0.142900 -0.958400 -0.247000
vn -0.030000 0.958400 -0.283700
vn -0.055200 0.850800 -0.522600
vn -0.074300 0.705700 -0.704600
vn -0.087700 0.546800 -0.832600
vn -0.096600 0.386600 -0.917200
vn -0.101900 0.229800 -0.967900
vn -0.104300 0.076100 -0.991600
vn -0.104300 -0.076100 -0.991600
vn -0.101900 -0.229800 -0.967900
vn -0.096600 -0.386600 -0.917200
vn -0.087700 -0.546800 -0.832600
vn -0.074300 -0.705700 -0.704600
vn -0.055200 -0.850800 -0.522600
vn -0.030000 -0.958400 -0.283700
vn 0.088100 0.958400 -0.271500
vn 0.162300 0.850700 -0.499900
vn 0.218700 0.705800 -0.673800
vn 0.258500 0.546800 -0.796400
vn 0.284700 0.386700 -0.877100
vn 0.300600 0.229800 -0.925600
vn 0.308100 0.076000 -0.948300
vn 0.308100 -0.076000 -0.948300
vn 0.300600 -0.229800 -0.925600
vn 0.284700 -0.386700 -0.877100
vn 0.258500 -0.546800 -0.796400
vn 0.218700 -0.705800 -0.673800
vn 0.162300 -0.850700 -0.499900
vn 0.088100 -0.958400 -0.271500
vn 0.190900 0.958400 -0.212200
vn 0.351500 0.850800 -0.390700
vn 0.473900 0.705800 -0.526600
vn 0.560100 0.546800 -0.622300
vn 0.617000 0.386700 -0.685400
vn 0.651100 0.229900 -0.723300
vn 0.667100 0.076100 -0.741000
vn 0.667100 -0.076100 -0.741000
vn 0.651100 -0.229900 -0.723300
vn 0.617000 -0.386700 -0.685400
vn 0.560100 -0.546800 -0.622300
vn 0.473900 -0.705800 -0.526600
vn 0.351500 -0.850800 -0.390700
vn 0.190900 -0.958400 -0.212200
vn 0.260700 0.958400 -0.116100
vn 0.480100 0.850700 -0.213900
vn 0.647200 0.705700 -0.288400
vn 0.764700 0.546900 -0.340800
vn 0.842400 0.386600 -0.375300
vn 0.889000 0.229900 -0.395900
vn 0.910800 0.076200 -0.405700
vn 0.910800 -0.076200 -0.405700
vn 0.889000 -0.229900 -0.395900
vn 0.842400 -0.386600 -0.375300
vn 0.764700 -0.546900 -0.340800
vn 0.647200 -0.705700 -0.288400
vn 0.480100 -0.850700 -0.213900
vn 0.260700 -0.958400 -0.116100
usemtl egg1_1024x512_jpgMaterial
s 1
f 1/1/1 17/2/2 2/3/3
f 2/3/3 17/2/2 18/4/4 3/5/5
f 3/5/5 18/4/4 19/6/6 4/7/7
f 4/7/7 19/6/6 20/8/8 5/9/9
f 5/9/9 20/8/8 21/10/10 6/11/11
f 6/11/11 21/10/10 22/12/12 7/13/13
f 7/13/13 22/12/12 23/14/14 8/15/15
f 8/15/15 23/14/14 24/14/16 9/15/17
f 9/15/17 24/14/16 25/12/18 10/13/19
f 10/13/19 25/12/18 26/10/20 11/11/21
f 11/11/21 26/10/20 27/8/22 12/9/23
f 12/9/23 27/8/22 28/6/24 13/7/25
f 13/7/25 28/6/24 29/4/26 14/5/27
f 14/5/27 29/4/26 30/2/28 15/3/29
f 15/3/29 30/2/28 16/1/30
f 1/1/1 31/16/31 17/2/2
f 17/2/2 31/16/31 32/17/32 18/4/4
f 18/4/4 32/17/32 33/18/33 19/6/6
f 19/6/6 33/18/33 34/19/34 20/8/8
f 20/8/8 34/19/34 35/20/35 21/10/10
f 21/10/10 35/20/35 36/21/36 22/12/12
f 22/12/12 36/21/36 37/22/37 23/14/14
f 23/14/14 37/22/37 38/22/38 24/14/16
f 24/14/16 38/22/38 39/21/39 25/12/18
f 25/12/18 39/21/39 40/20/40 26/10/20
f 26/10/20 40/20/40 41/19/41 27/8/22
f 27/8/22 41/19/41 42/18/42 28/6/24
f 28/6/24 42/18/42 43/17/43 29/4/26
f 29/4/26 43/17/43 44/16/44 30/2/28
f 30/2/28 44/16/44 16/1/30
f 1/1/1 45/23/45 31/16/31
f 31/16/31 45/23/45 46/24/46 32/17/32
f 32/17/32 46/24/46 47/25/47 33/18/33
f 33/18/33 47/25/47 48/26/48 34/19/34
f 34/19/34 48/26/48 49/27/49 35/20/35
f 35/20/35 49/27/49 50/28/50 36/21/36
f 36/21/36 50/28/50 51/29/51 37/22/37
f 37/22/37 51/29/51 52/29/52 38/22/38
f 38/22/38 52/29/52 53/28/53 39/21/39
f 39/21/39 53/28/53 54/27/54 40/20/40
f 40/20/40 54/27/54 55/26/55 41/19/41
f 41/19/41 55/26/55 56/25/56 42/18/42
f 42/18/42 56/25/56 57/24/57 43/17/43
f 43/17/43 57/24/57 58/23/58 44/16/44
f 44/16/44 58/23/58 16/1/30
f 1/1/1 59/30/59 45/23/45
f 45/23/45 59/30/59 60/31/60 46/24/46
f 46/24/46 60/31/60 61/32/61 47/25/47
f 47/25/47 61/32/61 62/33/62 48/26/48
f 48/26/48 62/33/62 63/34/63 49/27/49
f 49/27/49 63/34/63 64/35/64 50/28/50
f 50/28/50 64/35/64 65/36/65 51/29/51
f 51/29/51 65/36/65 66/36/66 52/29/52
f 52/29/52 66/36/66 67/35/67 53/28/53
f 53/28/53 67/35/67 68/34/68 54/27/54
f 54/27/54 68/34/68 69/33/69 55/26/55
f 55/26/55 69/33/69 70/32/70 56/25/56
f 56/25/56 70/32/70 71/31/71 57/24/57
f 57/24/57 71/31/71 72/30/72 58/23/58
f 58/23/58 72/30/72 16/1/30
f 1/1/1 73/37/73 59/30/59
f 59/30/59 73/37/73 74/38/74 60/31/60
f 60/31/60 74/38/74 75/39/75 61/32/61
f 61/32/61 75/39/75 76/40/76 62/33/62
f 62/33/62 76/40/76 77/41/77 63/34/63
f 63/34/63 77/41/77 78/42/78 64/35/64
f 64/35/64 78/42/78 79/43/79 65/36/65
f 65/36/65 79/43/79 80/43/80 66/36/66
f 66/36/66 80/43/80 81/42/81 67/35/67
f 67/35/67 81/42/81 82/41/82 68/34/68
f 68/34/68 82/41/82 83/40/83 69/33/69
f 69/33/69 83/40/83 84/39/84 70/32/70
f 70/32/70 84/39/84 85/38/85 71/31/71
f 71/31/71 85/38/85 86/37/86 72/30/72
f 72/30/72 86/37/86 16/1/30
f 1/1/1 87/44/87 73/37/73
f 73/37/73 87/44/87 88/45/88 74/38/74
f 74/38/74 88/45/88 89/46/89 75/39/75
f 75/39/75 89/46/89 90/47/90 76/40/76
f 76/40/76 90/47/90 91/48/91 77/41/77
f 77/41/77 91/48/91 92/49/92 78/42/78
f 78/42/78 92/49/92 93/50/93 79/43/79
f 79/43/79 93/50/93 94/50/94 80/43/80
f 80/43/80 94/50/94 95/49/95 81/42/81
f 81/42/81 95/49/95 96/48/96 82/41/82
f 82/41/82 96/48/96 97/47/97 83/40/83
f 83/40/83 97/47/97 98/46/98 84/39/84
f 84/39/84 98/46/98 99/45/99 85/38/85
f 85/38/85 99/45/99 100/44/100 86/37/86
f 86/37/86 100/44/100 16/1/30
f 1/1/1 101/51/101 87/44/87
f 87/44/87 101/51/101 102/52/102 88/45/88
f 88/45/88 102/52/102 103/53/103 89/46/89
f 89/46/89 103/53/103 104/54/104 90/47/90
f 90/47/90 104/54/104 105/55/105 91/48/91
f 91/48/91 105/55/105 106/56/106 92/49/92
f 92/49/92 106/56/106 107/57/107 93/50/93
f 93/50/93 107/57/107 108/57/108 94/50/94
f 94/50/94 108/57/108 109/56/109 95/49/95
f 95/49/95 109/56/109 110/55/110 96/48/96
f 96/48/96 110/55/110 111/54/111 97/47/97
f 97/47/97 111/54/111 112/53/112 98/46/98
f 98/46/98 112/53/112 113/52/113 99/45/99
f 99/45/99 113/52/113 114/51/114 100/44/100
f 100/44/100 114/51/114 16/1/30
f 1/1/1 115/58/115 101/51/101
f 101/51/101 115/58/115 116/59/116 102/52/102
f 102/52/102 116/59/116 117/60/117 103/53/103
f 103/53/103 117/60/117 118/61/118 104/54/104
f 104/54/104 118/61/118 119/62/119 105/55/105
f 105/55/105 119/62/119 120/63/120 106/56/106
f 106/56/106 120/63/120 121/64/121 107/57/107
f 107/57/107 121/64/121 122/64/122 108/57/108
f 108/57/108 122/64/122 123/63/123 109/56/109
f 109/56/109 123/63/123 124/62/124 110/55/110
f 110/55/110 124/62/124 125/61/125 111/54/111
f 111/54/111 125/61/125 126/60/126 112/53/112
f 112/53/112 126/60/126 127/59/127 113/52/113
f 113/52/113 127/59/127 128/58/128 114/51/114
f 114/51/114 128/58/128 16/1/30
f 1/1/1 129/65/129 115/58/115
f 115/58/115 129/65/129 130/66/130 116/59/116
f 116/59/116 130/66/130 131/67/131 117/60/117
f 117/60/117 131/67/131 132/68/132 118/61/118
f 118/61/118 132/68/132 133/69/133 119/62/119
f 119/62/119 133/69/133 134/70/134 120/63/120
f 120/63/120 134/70/134 135/71/135 121/64/121
f 121/64/121 135/71/135 136/71/136 122/64/122
f 122/64/122 136/71/136 137/70/137 123/63/123
f 123/63/123 137/70/137 138/69/138 124/62/124
f 124/62/124 138/69/138 139/68/139 125/61/125
f 125/61/125 139/68/139 140/67/140 126/60/126
f 126/60/126 140/67/140 141/66/141 127/59/127
f 127/59/127 141/66/141 142/65/142 128/58/128
f 128/58/128 142/65/142 16/1/30
f 1/1/1 143/72/143 129/65/129
f 129/65/129 143/72/143 144/73/144 130/66/130
f 130/66/130 144/73/144 145/74/145 131/67/131
f 131/67/131 145/74/145 146/75/146 132/68/132
f 132/68/132 146/75/146 147/76/147 133/69/133
f 133/69/133 147/76/147 148/77/148 134/70/134
f 134/70/134 148/77/148 149/78/149 135/71/135
f 135/71/135 149/78/149 150/78/150 136/71/136
f 136/71/136 150/78/150 151/77/151 137/70/137
f 137/70/137 151/77/151 152/76/152 138/69/138
f 138/69/138 152/76/152 153/75/153 139/68/139
f 139/68/139 153/75/153 154/74/154 140/67/140
f 140/67/140 154/74/154 155/73/155 141/66/141
f 141/66/141 155/73/155 156/72/156 142/65/142
f 142/65/142 156/72/156 16/1/30
f 1/1/1 157/79/157 143/72/143
f 143/72/143 157/79/157 158/80/158 144/73/144
f 144/73/144 158/80/158 159/81/159 145/74/145
f 145/74/145 159/81/159 160/82/160 146/75/146
f 146/75/146 160/82/160 161/83/161 147/76/147
f 147/76/147 161/83/161 162/84/162 148/77/148
f 148/77/148 162/84/162 163/85/163 149/78/149
f 149/78/149 163/85/163 164/85/164 150/78/150
f 150/78/150 164/85/164 165/84/165 151/77/151
f 151/77/151 165/84/165 166/83/166 152/76/152
f 152/76/152 166/83/166 167/82/167 153/75/153
f 153/75/153 167/82/167 168/81/168 154/74/154
f 154/74/154 168/81/168 169/80/169 155/73/155
f 155/73/155 169/80/169 170/79/170 156/72/156
f 156/72/156 170/79/170 16/1/30
f 1/1/1 171/86/171 157/79/157
f 157/79/157 171/86/171 172/87/172 158/80/158
f 158/80/158 172/87/172 173/88/173 159/81/159
f 159/81/159 173/88/173 174/89/174 160/82/160
f 160/82/160 174/89/174 175/90/175 161/83/161
f 161/83/161 175/90/175 176/91/176 162/84/162
f 162/84/162 176/91/176 177/92/177 163/85/163
f 163/85/163 177/92/177 178/92/178 164/85/164
f 164/85/164 178/92/178 179/91/179 165/84/165
f 165/84/165 179/91/179 180/90/180 166/83/166
f 166/83/166 180/90/180 181/89/181 167/82/167
f 167/82/167 181/89/181 182/88/182 168/81/168
f 168/81/168 182/88/182 183/87/183 169/80/169
f 169/80/169 183/87/183 184/86/184 170/79/170
f 170/79/170 184/86/184 16/1/30
f 1/1/1 185/93/185 171/86/171
f 171/86/171 185/93/185 186/94/186 172/87/172
f 172/87/172 186/94/186 187/95/187 173/88/173
f 173/88/173 187/95/187 188/96/188 174/89/174
f 174/89/174 188/96/188 189/97/189 175/90/175
f 175/90/175 189/97/189 190/98/190 176/91/176
f 176/91/176 190/98/190 191/99/191 177/92/177
f 177/92/177 191/99/191 192/99/192 178/92/178
f 178/92/178 192/99/192 193/98/193 179/91/179
f 179/91/179 193/98/193 194/97/194 180/90/180
f 180/90/180 194/97/194 195/96/195 181/89/181
f 181/89/181 195/96/195 196/95/196 182/88/182
f 182/88/182 196/95/196 197/94/197 183/87/183
f 183/87/183 197/94/197 198/93/198 184/86/184
f 184/86/184 198/93/198 16/1/30
f 1/1/1 199/100/199 185/93/185
f 185/93/185 199/100/199 200/101/200 186/94/186
f 186/94/186 200/101/200 201/102/201 187/95/187
f 187/95/187 201/102/201 202/103/202 188/96/188
f 188/96/188 202/103/202 203/104/203 189/97/189
f 189/97/189 203/104/203 204/105/204 190/98/190
f 190/98/190 204/105/204 205/106/205 191/99/191
f 191/99/191 205/106/205 206/106/206 192/99/192
f 192/99/192 206/106/206 207/105/207 193/98/193
f 193/98/193 207/105/207 208/104/208 194/97/194
f 194/97/194 208/104/208 209/103/209 195/96/195
f 195/96/195 209/103/209 210/102/210 196/95/196
f 196/95/196 210/102/210 211/101/211 197/94/197
f 197/94/197 211/101/211 212/100/212 198/93/198
f 198/93/198 212/100/212 16/1/30
f 1/1/1 2/3/3 199/100/199
f 199/100/199 2/3/3 3/5/5 200/101/200
f 200/101/200 3/5/5 4/7/7 201/102/201
f 201/102/201 4/7/7 5/9/9 202/103/202
f 202/103/202 5/9/9 6/11/11 203/104/203
f 203/104/203 6/11/11 7/13/13 204/105/204
f 204/105/204 7/13/13 8/15/15 205/106/205
f 205/106/205 8/15/15 9/15/17 206/106/206
f 206/106/206 9/15/17 10/13/19 207/105/207
f 207/105/207 10/13/19 11/11/21 208/104/208
f 208/104/208 11/11/21 12/9/23 209/103/209
f 209/103/209 12/9/23 13/7/25 210/102/210
f 210/102/210 13/7/25 14/5/27 211/101/211
f 211/101/211 14/5/27 15/3/29 212/100/212
f 212/100/212 15/3/29 16/1/30
